<svg width="21" height="21" viewBox="0 0 21 21" fill="none" xmlns="http://www.w3.org/2000/svg"><path d="M17.1667 0.5C16.2826 0.5 15.4348 0.851189 14.8096 1.47631C14.1845 2.10143 13.8333 2.94928 13.8333 3.83333C13.8348 4.06764 13.861 4.30113 13.9115 4.52995L6.3431 8.31413C6.03095 7.95475 5.64545 7.6664 5.21254 7.46847C4.77963 7.27055 4.30934 7.16764 3.83333 7.16667C2.94928 7.16667 2.10143 7.51786 1.47631 8.14298C0.851189 8.7681 0.5 9.61594 0.5 10.5C0.5 11.3841 0.851189 12.2319 1.47631 12.857C2.10143 13.4821 2.94928 13.8333 3.83333 13.8333C4.30949 13.8328 4.78001 13.7303 5.21322 13.5326C5.64642 13.335 6.03225 13.0468 6.34473 12.6875L13.9082 16.4701C13.8588 16.699 13.8337 16.9325 13.8333 17.1667C13.8333 18.0507 14.1845 18.8986 14.8096 19.5237C15.4348 20.1488 16.2826 20.5 17.1667 20.5C18.0507 20.5 18.8986 20.1488 19.5237 19.5237C20.1488 18.8986 20.5 18.0507 20.5 17.1667C20.5 16.2826 20.1488 15.4348 19.5237 14.8096C18.8986 14.1845 18.0507 13.8333 17.1667 13.8333C16.6905 13.8339 16.22 13.9364 15.7868 14.1341C15.3536 14.3317 14.9678 14.6199 14.6553 14.9792L7.0918 11.1966C7.14116 10.9677 7.16625 10.7342 7.16667 10.5C7.16507 10.2662 7.13888 10.0333 7.08854 9.80501L14.6569 6.02083C14.9692 6.37991 15.3548 6.66796 15.7877 6.8656C16.2206 7.06324 16.6908 7.1659 17.1667 7.16667C18.0507 7.16667 18.8986 6.81548 19.5237 6.19036C20.1488 5.56523 20.5 4.71739 20.5 3.83333C20.5 2.94928 20.1488 2.10143 19.5237 1.47631C18.8986 0.851189 18.0507 0.5 17.1667 0.5Z" fill="white"/></svg>